<svg version="1" xmlns="http://www.w3.org/2000/svg" width="285.333" height="285.333" viewBox="0 0 214.000000 214.000000"><path d="M59.8 57.7C34 83.5 12.7 105.3 12.4 106.4c-.5 1.5 9.3 11.8 46.7 49.2 26.1 26.1 48 47.4 48.7 47.4 1.7 0 94.6-92.7 95.5-95.3.5-1.3-10.2-12.6-46.8-49.2-26.1-26.1-48-47.5-48.7-47.5-.7 0-22.3 21-48 46.7zm49.6-35c.9 2.3-.9 3.9-2.8 2.4-1.2-1-1.3-1.6-.3-2.6 1.6-1.9 2.4-1.8 3.1.2zm-7.8 8.4c.3.6 0 1.7-.8 2.5-1.3 1.3-1.6 1.3-2.8-.1-1.2-1.4-1.1-1.8.1-2.6 1.9-1.2 2.6-1.1 3.5.2zm16.1.5c.9 2.3-1.1 3.8-2.6 2-1.3-1.6-.7-3.6 1-3.6.5 0 1.2.7 1.6 1.6zm-24.8 7.8c.9 1 .8 1.6-.4 2.6-2 1.6-3.8.1-2.9-2.3.8-2.1 1.8-2.2 3.3-.3zm16.8.2c.9 2.3-1.3 4-3.2 2.4-1.2-1-1.3-1.6-.4-2.6 1.5-1.8 2.8-1.8 3.6.2zM126 42c-2.1 1.3-4.4-.8-2.8-2.7 1-1.2 1.4-1.2 2.7.2 1.4 1.4 1.4 1.7.1 2.5zM68 66.5C58.4 76.1 50 84 49.3 84c-3.5 0-.3-4.2 15.6-20.2C80.3 48.3 82.7 46.3 84 47.6c1.3 1.2-.7 3.6-16 18.9zm33-16c-1.9 2.3-4.4 0-2.9-2.7 1-1.8 1.2-1.9 2.7-.5 1.3 1.3 1.3 1.9.2 3.2zm66.7 31.9c-.2.5-.8 1.1-1.3 1.3-.5.2-8.8-7.5-18.3-17.1-14.4-14.4-17.2-17.7-16.3-18.9 1-1.2 4.2 1.5 18.7 16.1 9.7 9.7 17.4 18.1 17.2 18.6zm-49.4-34.8c.9 1-.4 3.4-1.8 3.4-1.7 0-2.8-1.7-2-3 .7-1.1 2.8-1.3 3.8-.4zm-25.5 8.6c.8 1-3.5 5.8-16.7 19.1-15.6 15.6-18 17.6-19.1 16.2-1.2-1.4.9-3.9 16.1-19 9.6-9.6 17.7-17.5 18-17.5.4 0 1.1.6 1.7 1.2zm16.9.4c.8 2-1.7 3.6-3.4 2.2-1-.8-1-1.4-.2-2.4 1.5-1.8 2.8-1.8 3.6.2zm33 16c14.7 14.8 17.3 17.8 16.2 19-1.1 1.3-3.9-1.1-19-16.2-13.7-13.7-17.6-18.1-16.7-19.1.6-.7 1.3-1.3 1.6-1.3.3 0 8.3 7.9 17.9 17.6zm-41.8-8.2c1 1.2-1.9 4.6-16.3 19-9.7 9.7-18 17.6-18.5 17.6-3.4 0 .2-4.6 15.8-20.3C91.5 71 99.5 63 99.6 63c.1 0 .7.6 1.3 1.4zm49.6 35.5c-1.3 1.3-3.6-.6-19.2-16.1-15.5-15.5-17.5-17.9-16.3-19.3 1.2-1.4 3.4.4 19.2 16.2 15.7 15.7 17.6 17.9 16.3 19.2zM126 89.5l17.5 17.5-17.9 17.9-17.8 17.8-17.4-17.4C80.8 115.7 73 107.5 73 107c0-1.1 33.2-34.7 34.5-34.9.6 0 8.9 7.8 18.5 17.4zm-83.1-.1c.8 1 .8 1.6-.3 2.5-1 .9-1.6.8-2.6-.3-1.2-1.5-.6-3.6.9-3.6.5 0 1.4.6 2 1.4zm132.9 2.3c-1 1.2-1.4 1.2-2.7-.2-1.4-1.4-1.4-1.7-.1-2.5 2.1-1.3 4.4.8 2.8 2.7zM34.5 99.9c-1.1 1.2-1.7 1.2-3 .1-2.3-1.9-.1-4.4 2.6-2.7 1.6 1 1.7 1.3.4 2.6zm16.7.3c-1.7 1.7-4.6-.8-2.9-2.7 1-1.1 1.4-1.1 2.7.1 1.1 1 1.1 1.7.2 2.6zm116.7-.6c-1.5 1.8-2.8 1.8-3.6-.2-.8-2 1.7-3.6 3.4-2.2 1 .8 1 1.4.2 2.4zm16.3.6c-1.7 1.7-4.7-.9-3-2.9 1-1.2 1.3-1.2 2.7.1 1.1 1.2 1.2 1.9.3 2.8zM26.5 106c.4.6.1 1.7-.5 2.6-1.5 1.8-4.2 0-3.3-2.2.6-1.6 2.9-1.9 3.8-.4zm16.8.4c.9 2.2-1.8 4-3.3 2.2-.6-.9-.9-2-.5-2.6.9-1.5 3.2-1.2 3.8.4zm17.1-.6c.2.4-.2 1.5-.9 2.5-1.1 1.5-1.4 1.5-2.5.3-.6-.9-.9-2-.5-2.6.7-1.2 3.2-1.3 3.9-.2zm99.4.9c.5 1.8-2.8 2.9-3.8 1.2-.5-.7-.6-1.7-.3-2.2.7-1.2 3.5-.5 4.1 1zm15.6-1.1c1.7.7 1 3.4-.9 3.4-1.7 0-2.8-1.7-2-3 .7-1.2.8-1.2 2.9-.4zm17.4.3c1 .6 1 1-.3 2.1-1.8 1.5-4.2 0-3.1-1.9.8-1.3 1.6-1.4 3.4-.2zM34.6 116.8c-1.9 1.9-4.2.3-3.2-2.3.5-1.3 1-1.4 2.7-.4 2 1 2 1.2.5 2.7zm16.7-2.5c.3.8.1 2-.3 2.7-.7 1.1-1.1 1.1-2.4.1-1.2-1.1-1.4-1.7-.5-2.7 1.4-1.8 2.5-1.8 3.2-.1zm33.1 16.4c15.1 15.2 17.4 17.9 16.2 19.1-1.2 1.2-3.9-1.1-19-16.3-14.1-14.2-17.4-18-16.5-19.1.6-.8 1.3-1.4 1.4-1.4.1 0 8.2 8 17.9 17.7zm66.4-16.5c1 1-2.5 5-16.4 18.9-15.4 15.4-17.9 17.6-19.5 16.6-1.6-1 .3-3.2 15.9-18.8 9.7-9.8 17.9-17.8 18.3-17.8.3-.1 1 .4 1.7 1.1zm17.1.2c.9 1 .8 1.6-.4 2.6-2 1.6-3.8.1-2.9-2.3.8-2.1 1.8-2.2 3.3-.3zm16.6-.4c.4.6.1 1.7-.5 2.6-1 1.1-1.6 1.2-2.6.3-1.1-.9-1.1-1.5-.3-2.5 1.4-1.7 2.5-1.8 3.4-.4zM43.3 124.6c-.6 1.6-2.9 1.9-3.8.4-.4-.6-.1-1.7.5-2.6 1.5-1.8 4.2 0 3.3 2.2zm49 33.4c-1.1 1.3-3.7-.9-19-16.2-14.7-14.7-17.5-17.9-16.4-19.1 1-1.3 4 1.3 19 16.2C91.2 154 93.5 156.7 92.3 158zm50.7-16.5c-9.6 9.6-17.7 17.5-18 17.5-.3 0-1.2-.4-1.9-.9-1.2-.8 2.5-5 16.5-19 15.4-15.5 18.1-17.8 19.3-16.6 1.3 1.3-.9 3.8-15.9 19zm32.6-16.6c-2.2 2.1-4.6 0-2.6-2.4 1-1.2 1.6-1.3 2.7-.3 1.2 1 1.2 1.3-.1 2.7zM67.9 147.5c15 15.1 17.2 17.7 16.1 19-1.2 1.4-3.6-.7-19.1-16.2-13.6-13.5-17.5-18-16.7-19 .6-.7 1.3-1.3 1.7-1.3.3 0 8.4 7.9 18 17.5zm99.8-15.8c.5 1.5-34.5 36.5-35.7 35.8-.6-.3-1-1.1-1-1.8 0-1.6 34.2-35.8 35.4-35.4.5.2 1.1.8 1.3 1.4zM110 156.6c0 2-3 3-4 1.4s1-3.9 2.7-3.3c.7.3 1.3 1.2 1.3 1.9zm-8.7 7.8c.9 2.3-1.8 3.9-3.4 2-1.1-1.3-1-1.7.2-2.5 2-1.2 2.6-1.1 3.2.5zm16.6-.1c.8 1 .7 1.7-.1 2.5-1.6 1.6-2.5 1.5-3.2-.4-1.2-3 1.2-4.5 3.3-2.1zm-25 8.1c.9 1 .8 1.6-.4 2.6-1.9 1.6-4.1-.1-3.2-2.4.8-2 2.1-2 3.6-.2zm33.7 2.5c-.9 1.3-1.6 1.4-3.5.2-1.2-.8-1.3-1.2-.1-2.6 1.2-1.4 1.5-1.4 2.8-.1.8.8 1.1 1.9.8 2.5zm-16.6-1.5c0 .8-.5 1.8-1 2.1-1.3.8-4.2-1.4-3.4-2.6.9-1.5 4.4-1 4.4.5zm-8.4 7.7c.3.6 0 1.7-.8 2.5-1.3 1.3-1.6 1.3-2.8-.1-1.2-1.4-1.1-1.8.1-2.6 1.9-1.2 2.6-1.1 3.5.2zm16.7.2c.2.6-.1 1.8-.8 2.4-1 1-1.6.9-2.5-.2-.6-.8-.9-1.9-.5-2.5.9-1.4 3.2-1.3 3.8.3zm-8.6 8.3c.9 2.3-1.3 4-3.2 2.4-1.2-1-1.3-1.6-.4-2.6 1.5-1.8 2.8-1.8 3.6.2z"/></svg>